<svg version="1.1" id="Layer_1" xmlns="http://www.w3.org/2000/svg" xmlns:xlink="http://www.w3.org/1999/xlink" x="0px" y="0px"
	 width="100%" viewBox="0 0 2400 1050" enable-background="new 0 0 2400 1050" xml:space="preserve">
<path fill="#FFFFFF" opacity="1.000000" stroke="none" 
	d="
M301.000000,1.000000 
	C1000.948425,1.000000 1700.896851,1.000000 2400.922607,1.000000 
	C2400.922607,350.922638 2400.922607,700.845276 2400.922607,1051.000000 
	C1701.295776,1051.000000 1001.591492,1051.000000 301.443604,1050.540283 
	C301.000000,700.387024 301.000000,350.693512 301.000000,1.000000 
M1126.148071,18.005247 
	C1124.752563,17.182486 1123.357178,16.359724 1121.864868,15.479891 
	C1117.781738,15.954975 1113.269775,16.338457 1108.806152,17.031853 
	C1101.790527,18.121660 1094.756470,19.187775 1087.828369,20.710268 
	C1083.020874,21.766706 1078.401611,23.653904 1073.655396,25.021267 
	C1069.054199,26.346838 1063.964355,26.661396 1059.840210,28.841011 
	C1039.974487,39.340019 1022.276611,52.748390 1008.737732,70.890045 
	C998.128906,85.105644 990.945801,100.826736 990.998108,119.086693 
	C991.009399,123.027344 990.999817,126.968063 990.999817,129.072144 
	C976.609192,135.363693 963.083069,140.744690 950.076782,147.176804 
	C943.030640,150.661362 936.370605,155.368118 932.158997,162.527374 
	C929.686584,166.730148 931.732971,171.097565 936.488342,170.892426 
	C942.475830,170.634094 948.596924,170.236420 954.357544,168.736191 
	C962.392944,166.643555 970.148071,163.474747 978.640381,161.359329 
	C977.642944,162.865341 976.650452,164.374710 975.647278,165.876877 
	C966.891113,178.987854 959.683044,192.864563 955.075317,207.991455 
	C951.581116,219.462708 948.826355,231.111710 949.044556,243.193176 
	C949.257507,254.985901 948.780334,266.933411 950.531616,278.521973 
	C953.023621,295.011963 958.346191,310.861359 966.874512,325.392151 
	C946.507324,336.617767 927.777039,349.926880 911.075684,365.685577 
	C891.152649,384.484039 872.191223,404.302063 852.838684,423.703827 
	C852.044861,424.499725 851.379639,425.489532 850.877869,426.499939 
	C848.660034,430.966278 850.011963,433.275208 854.860840,432.923645 
	C857.076050,432.763062 859.359436,432.070587 861.393188,431.140900 
	C868.871887,427.721924 876.259033,424.102509 884.316162,420.255066 
	C883.719482,421.324280 883.450134,421.841217 883.149963,422.339630 
	C876.578918,433.252594 869.923767,444.116364 863.509216,455.120422 
	C862.419128,456.990448 862.358826,459.460754 861.822754,461.653748 
	C875.616394,456.655762 883.819702,445.333557 895.457520,436.915253 
	C890.491272,453.436615 879.491760,466.466888 876.445618,483.049957 
	C879.355164,482.745667 882.055176,482.357239 883.952515,480.913788 
	C890.483459,475.945251 897.197876,471.076172 903.003723,465.322968 
	C920.252808,448.230408 937.128174,430.759796 954.097534,413.386139 
	C963.381470,403.881042 972.675293,394.380646 981.745239,384.673126 
	C987.570251,378.438660 992.995728,371.830963 998.635132,365.350494 
	C1017.969666,382.616669 1040.437500,394.129822 1066.250366,400.072479 
	C1008.981384,503.499695 951.985046,606.434509 894.874817,709.575195 
	C1031.188843,709.575195 1166.992432,709.575195 1303.109009,709.575195 
	C1245.919922,606.311462 1188.984497,503.505829 1132.286133,401.128143 
	C1144.452148,396.315277 1157.024902,392.484161 1168.468750,386.495758 
	C1180.109863,380.403870 1190.639160,372.186768 1202.130981,364.585693 
	C1209.063843,372.471497 1216.484741,381.285248 1224.308228,389.725983 
	C1236.595215,402.982544 1248.866943,416.275452 1261.669556,429.026520 
	C1277.780151,445.072113 1294.276733,460.740509 1310.940430,476.212280 
	C1314.598511,479.608734 1318.632568,483.923431 1325.370361,482.661743 
	C1324.879883,480.615753 1324.749146,478.948151 1324.093262,477.521942 
	C1320.607056,469.940033 1316.890015,462.463501 1313.451050,454.860840 
	C1311.104858,449.673859 1309.083496,444.339966 1307.304077,438.733093 
	C1307.415161,438.602448 1307.526123,438.471771 1308.192505,438.729614 
	C1308.911377,439.106171 1309.743286,439.355621 1310.331909,439.878754 
	C1316.870728,445.690338 1323.278442,451.653778 1329.932129,457.329376 
	C1332.361450,459.401672 1335.351318,460.816864 1338.085449,462.531860 
	C1338.472656,462.156586 1338.859863,461.781342 1339.247070,461.406097 
	C1338.860229,459.374084 1338.880615,457.144348 1338.008423,455.347839 
	C1335.582642,450.350464 1332.962402,445.426819 1330.093140,440.670502 
	C1326.208618,434.230835 1322.020996,427.974060 1317.963257,421.638824 
	C1325.085693,424.073242 1331.385376,427.468811 1337.920288,430.326721 
	C1341.131348,431.731079 1344.742065,432.595795 1348.237549,432.870850 
	C1351.800171,433.151215 1352.818481,430.679779 1351.175781,427.720490 
	C1349.761230,425.172333 1348.071045,422.646942 1346.011597,420.607452 
	C1327.879883,402.651306 1309.917969,384.508087 1291.313965,367.051025 
	C1281.651123,357.983826 1271.068726,349.817963 1260.395264,341.930267 
	C1251.385132,335.271790 1241.644409,329.602051 1232.507080,323.676270 
	C1235.072998,317.655273 1237.856201,311.903381 1240.011353,305.925079 
	C1247.244263,285.859589 1251.330811,265.267426 1248.954346,243.826950 
	C1247.928955,234.574921 1247.133789,225.194534 1244.890137,216.207916 
	C1242.420776,206.316437 1238.406738,196.810562 1235.715820,186.829895 
	C1236.533325,186.335175 1237.331787,185.805527 1238.171143,185.351120 
	C1248.096680,179.976990 1252.809692,169.954636 1251.065308,158.728485 
	C1249.816162,150.690506 1248.985962,142.586761 1248.005859,134.507843 
	C1247.180786,127.705833 1247.083496,120.734238 1245.484375,114.122963 
	C1241.058960,95.825241 1233.771240,78.724281 1221.544434,64.134216 
	C1217.070190,58.795219 1212.551147,53.288887 1207.145142,49.003498 
	C1203.190308,45.868511 1197.808960,44.463547 1192.965942,42.531548 
	C1177.383789,36.315319 1161.756348,30.212250 1146.137695,24.062180 
	C1148.164429,18.315325 1145.263306,13.530489 1139.350952,14.127570 
	C1134.492676,14.618186 1129.730957,16.734173 1125.122314,12.367198 
	C1124.999878,12.838807 1124.877441,13.310416 1124.755005,13.782025 
	C1125.768188,15.003204 1126.781494,16.224382 1127.345459,17.742376 
	C1127.206299,17.855652 1127.067017,17.968929 1126.148071,18.005247 
z"/>
<path fill="#E8E2CB" opacity="1.000000" stroke="none" 
	d="
M300.540283,1.000000 
	C301.000000,350.693512 301.000000,700.387024 301.000000,1050.540283 
	C201.025421,1051.000000 101.050827,1051.000000 1.038123,1051.000000 
	C1.038123,701.114380 1.038123,351.228729 1.038123,1.000000 
	C100.693268,1.000000 200.386932,1.000000 300.540283,1.000000 
M242.598450,524.061707 
	C242.449432,519.409973 242.493958,514.742615 242.121918,510.108795 
	C237.645355,454.353729 185.596252,413.440460 130.478699,422.296021 
	C77.440216,430.817535 41.926727,478.669952 48.901154,532.217163 
	C56.844456,593.203186 121.483658,632.172852 178.828568,609.917480 
	C217.356522,594.964905 238.311813,566.070435 242.598450,524.061707 
M68.287102,251.499969 
	C68.287071,259.332123 68.565430,267.177917 68.182449,274.991302 
	C67.953217,279.667969 69.487045,280.829712 74.051888,280.812378 
	C117.878052,280.646240 161.705093,280.715424 205.531876,280.703247 
	C207.152145,280.702789 208.772369,280.558929 210.625687,280.470825 
	C210.625687,233.028702 210.625687,185.963318 210.625687,138.528625 
	C208.768509,138.440765 207.144043,138.297211 205.519547,138.296768 
	C161.692764,138.284546 117.865715,138.355011 74.039581,138.186127 
	C69.452454,138.168442 68.157394,139.385986 68.182281,144.016449 
	C68.373085,179.510117 68.287308,215.005280 68.287102,251.499969 
M35.138603,912.781982 
	C37.008938,913.091553 38.879066,913.670349 40.749641,913.671753 
	C102.869461,913.718872 164.989319,913.710754 227.109177,913.710754 
	C228.873825,913.710754 230.638474,913.710693 233.421356,913.710693 
	C200.020126,855.864075 167.104340,798.858215 133.774384,741.135010 
	C100.527176,798.766235 67.863495,855.385925 35.138603,912.781982 
z"/>
<path fill="#7751A1" opacity="1.000000" stroke="none" 
	d="
M1235.065552,187.136688 
	C1238.406738,196.810562 1242.420776,206.316437 1244.890137,216.207916 
	C1247.133789,225.194534 1247.928955,234.574921 1248.954346,243.826950 
	C1251.330811,265.267426 1247.244263,285.859589 1240.011353,305.925079 
	C1237.856201,311.903381 1235.072998,317.655273 1232.507080,323.676270 
	C1241.644409,329.602051 1251.385132,335.271790 1260.395264,341.930267 
	C1271.068726,349.817963 1281.651123,357.983826 1291.313965,367.051025 
	C1309.917969,384.508087 1327.879883,402.651306 1346.011597,420.607452 
	C1348.071045,422.646942 1349.761230,425.172333 1351.175781,427.720490 
	C1352.818481,430.679779 1351.800171,433.151215 1348.237549,432.870850 
	C1344.742065,432.595795 1341.131348,431.731079 1337.920288,430.326721 
	C1331.385376,427.468811 1325.085693,424.073242 1317.963257,421.638824 
	C1322.020996,427.974060 1326.208618,434.230835 1330.093140,440.670502 
	C1332.962402,445.426819 1335.582642,450.350464 1338.008423,455.347839 
	C1338.880615,457.144348 1338.860229,459.374084 1339.247070,461.406097 
	C1338.859863,461.781342 1338.472656,462.156586 1338.085449,462.531860 
	C1335.351318,460.816864 1332.361450,459.401672 1329.932129,457.329376 
	C1323.278442,451.653778 1316.870728,445.690338 1310.331909,439.878754 
	C1309.743286,439.355621 1308.911377,439.106171 1307.744019,438.318878 
	C1306.932617,437.789734 1306.569824,437.671295 1306.206909,437.552887 
	C1306.443604,438.059174 1306.680298,438.565460 1306.916992,439.071777 
	C1309.083496,444.339966 1311.104858,449.673859 1313.451050,454.860840 
	C1316.890015,462.463501 1320.607056,469.940033 1324.093262,477.521942 
	C1324.749146,478.948151 1324.879883,480.615753 1325.370361,482.661743 
	C1318.632568,483.923431 1314.598511,479.608734 1310.940430,476.212280 
	C1294.276733,460.740509 1277.780151,445.072113 1261.669556,429.026520 
	C1248.866943,416.275452 1236.595215,402.982544 1224.308228,389.725983 
	C1216.484741,381.285248 1209.063843,372.471497 1202.130981,364.585693 
	C1190.639160,372.186768 1180.109863,380.403870 1168.468750,386.495758 
	C1157.024902,392.484161 1144.452148,396.315277 1132.286133,401.128143 
	C1188.984497,503.505829 1245.919922,606.311462 1303.109009,709.575195 
	C1166.992432,709.575195 1031.188843,709.575195 894.874817,709.575195 
	C951.985046,606.434509 1008.981384,503.499695 1066.250366,400.072479 
	C1040.437500,394.129822 1017.969666,382.616669 998.635132,365.350494 
	C992.995728,371.830963 987.570251,378.438660 981.745239,384.673126 
	C972.675293,394.380646 963.381470,403.881042 954.097534,413.386139 
	C937.128174,430.759796 920.252808,448.230408 903.003723,465.322968 
	C897.197876,471.076172 890.483459,475.945251 883.952515,480.913788 
	C882.055176,482.357239 879.355164,482.745667 876.445618,483.049957 
	C879.491760,466.466888 890.491272,453.436615 895.457520,436.915253 
	C883.819702,445.333557 875.616394,456.655762 861.822754,461.653748 
	C862.358826,459.460754 862.419128,456.990448 863.509216,455.120422 
	C869.923767,444.116364 876.578918,433.252594 883.149963,422.339630 
	C883.450134,421.841217 883.719482,421.324280 884.316162,420.255066 
	C876.259033,424.102509 868.871887,427.721924 861.393188,431.140900 
	C859.359436,432.070587 857.076050,432.763062 854.860840,432.923645 
	C850.011963,433.275208 848.660034,430.966278 850.877869,426.499939 
	C851.379639,425.489532 852.044861,424.499725 852.838684,423.703827 
	C872.191223,404.302063 891.152649,384.484039 911.075684,365.685577 
	C927.777039,349.926880 946.507324,336.617767 966.874512,325.392151 
	C958.346191,310.861359 953.023621,295.011963 950.531616,278.521973 
	C948.780334,266.933411 949.257507,254.985901 949.044556,243.193176 
	C948.826355,231.111710 951.581116,219.462708 955.075317,207.991455 
	C959.683044,192.864563 966.891113,178.987854 975.647278,165.876877 
	C976.650452,164.374710 977.642944,162.865341 978.335754,161.110504 
	C978.031128,160.861679 977.944214,160.903305 978.157166,161.206879 
	C978.887329,161.050720 979.404602,160.590988 980.258179,159.988647 
	C982.323059,158.928574 983.956299,157.690903 985.794983,157.143814 
	C1001.947937,152.337677 1018.624512,150.218048 1035.323975,150.440063 
	C1053.859863,150.686462 1072.367920,152.785706 1090.898804,153.897644 
	C1094.472412,154.112076 1098.538208,154.472244 1101.617554,153.082581 
	C1112.867676,148.005630 1124.328857,144.257339 1136.657959,142.692902 
	C1157.149536,140.092697 1175.720703,144.033569 1191.670654,156.997070 
	C1175.217651,152.878845 1162.065186,157.931763 1151.632080,170.151733 
	C1138.504395,185.527618 1132.164429,203.965485 1129.016357,223.624695 
	C1127.847778,230.922760 1127.135254,238.293869 1126.175415,245.946152 
	C1108.905518,245.946152 1091.756226,246.035263 1074.612793,245.756073 
	C1073.402954,245.736359 1071.512329,243.141953 1071.194214,241.501297 
	C1070.410034,237.456467 1070.529175,233.246933 1069.982178,229.144028 
	C1067.172241,208.069962 1061.093506,188.137634 1047.484741,171.376633 
	C1038.821777,160.706940 1027.785400,154.172760 1013.243591,155.984360 
	C1000.419189,157.582016 991.860840,165.754852 984.905884,175.484985 
	C971.045166,194.876282 965.557251,217.338562 964.292053,240.640121 
	C963.567261,253.990051 964.463196,267.594330 966.221985,280.873138 
	C968.757446,300.016113 974.915039,318.174744 987.333252,333.437073 
	C1004.945007,355.082642 1027.908936,355.475555 1045.234497,336.814850 
	C1060.596191,320.269440 1066.712891,299.304993 1069.942627,277.457306 
	C1071.023193,270.147156 1071.500977,262.747925 1072.261963,255.314484 
	C1090.345581,255.314484 1107.931396,255.314484 1125.767822,255.314484 
	C1126.194336,257.839294 1126.635742,260.098907 1126.950439,262.376007 
	C1128.331909,272.375427 1128.949951,282.546234 1131.192139,292.346588 
	C1135.361694,310.570404 1142.375610,327.566956 1156.856323,340.401520 
	C1163.119629,345.952789 1170.302124,349.613983 1178.805664,349.977600 
	C1193.455444,350.604065 1203.782715,342.773743 1211.970093,331.859100 
	C1226.637817,312.305756 1232.179077,289.441956 1233.782959,265.620819 
	C1234.538696,254.397263 1233.940918,242.983109 1232.874023,231.758209 
	C1230.997559,212.017319 1225.568115,193.237579 1214.074219,176.749802 
	C1210.515015,171.644363 1205.966431,167.228714 1202.195679,162.671143 
	C1210.909546,168.364380 1219.415283,173.717819 1227.624023,179.493362 
	C1230.482178,181.504395 1232.606201,184.558792 1235.065552,187.136688 
M1111.982544,366.647400 
	C1108.653931,360.707520 1105.414307,354.715332 1101.965210,348.846191 
	C1099.677246,344.952972 1098.371338,344.950714 1096.072388,348.749084 
	C1092.975830,353.865112 1089.995361,359.055176 1087.120361,364.298645 
	C1086.433105,365.552124 1086.360962,367.142792 1086.005859,368.578369 
	C1086.509277,368.837341 1087.012695,369.096283 1087.516113,369.355255 
	C1092.963501,365.031677 1094.119385,357.337219 1099.379639,352.204132 
	C1102.255127,357.200775 1104.836304,361.830231 1107.572998,366.365814 
	C1108.579712,368.034027 1109.666138,370.736938 1111.982544,366.647400 
z"/>
<path fill="#000000" opacity="1.000000" stroke="none" 
	d="
M1235.390625,186.983307 
	C1232.606201,184.558792 1230.482178,181.504395 1227.624023,179.493362 
	C1219.415283,173.717819 1210.909546,168.364380 1202.031128,162.436462 
	C1199.038940,160.681168 1196.536011,159.334473 1193.887939,157.713608 
	C1193.161377,157.271393 1192.579956,157.103348 1192.014893,156.967438 
	C1192.031128,156.999588 1192.096313,156.968430 1192.096313,156.968430 
	C1175.720703,144.033569 1157.149536,140.092697 1136.657959,142.692902 
	C1124.328857,144.257339 1112.867676,148.005630 1101.617554,153.082581 
	C1098.538208,154.472244 1094.472412,154.112076 1090.898804,153.897644 
	C1072.367920,152.785706 1053.859863,150.686462 1035.323975,150.440063 
	C1018.624512,150.218048 1001.947937,152.337677 985.794983,157.143814 
	C983.956299,157.690903 982.323059,158.928574 979.953369,159.928726 
	C978.856262,160.308716 978.400208,160.606003 977.944214,160.903305 
	C977.944214,160.903305 978.031128,160.861679 978.027100,160.814072 
	C970.148071,163.474747 962.392944,166.643555 954.357544,168.736191 
	C948.596924,170.236420 942.475830,170.634094 936.488342,170.892426 
	C931.732971,171.097565 929.686584,166.730148 932.158997,162.527374 
	C936.370605,155.368118 943.030640,150.661362 950.076782,147.176804 
	C963.083069,140.744690 976.609192,135.363693 990.999817,129.072144 
	C990.999817,126.968063 991.009399,123.027344 990.998108,119.086693 
	C990.945801,100.826736 998.128906,85.105644 1008.737732,70.890045 
	C1022.276611,52.748390 1039.974487,39.340019 1059.840210,28.841011 
	C1063.964355,26.661396 1069.054199,26.346838 1073.655396,25.021267 
	C1078.401611,23.653904 1083.020874,21.766706 1087.828369,20.710268 
	C1094.756470,19.187775 1101.790527,18.121660 1108.806152,17.031853 
	C1113.269775,16.338457 1117.781738,15.954975 1121.864868,15.479891 
	C1123.357178,16.359724 1124.752563,17.182486 1126.634521,18.324080 
	C1127.660522,18.683352 1128.200073,18.723789 1128.739746,18.764221 
	C1128.424805,18.324657 1128.109741,17.885103 1127.794800,17.445555 
	C1126.781494,16.224382 1125.768188,15.003204 1124.755005,13.782025 
	C1124.877441,13.310416 1124.999878,12.838807 1125.122314,12.367198 
	C1129.730957,16.734173 1134.492676,14.618186 1139.350952,14.127570 
	C1145.263306,13.530489 1148.164429,18.315325 1146.137695,24.062180 
	C1161.756348,30.212250 1177.383789,36.315319 1192.965942,42.531548 
	C1197.808960,44.463547 1203.190308,45.868511 1207.145142,49.003498 
	C1212.551147,53.288887 1217.070190,58.795219 1221.544434,64.134216 
	C1233.771240,78.724281 1241.058960,95.825241 1245.484375,114.122963 
	C1247.083496,120.734238 1247.180786,127.705833 1248.005859,134.507843 
	C1248.985962,142.586761 1249.816162,150.690506 1251.065308,158.728485 
	C1252.809692,169.954636 1248.096680,179.976990 1238.171143,185.351120 
	C1237.331787,185.805527 1236.533325,186.335175 1235.390625,186.983307 
M1031.503174,127.995148 
	C1018.855957,130.145767 1005.985229,131.437805 993.616089,134.657013 
	C976.890869,139.009918 960.426392,144.606857 946.229797,155.043320 
	C942.116516,158.067154 937.952881,161.256180 935.597778,166.744049 
	C944.684509,167.526596 952.375305,164.943954 959.792664,161.944595 
	C980.079834,153.741150 1001.012573,148.035660 1022.863098,147.192368 
	C1039.087036,146.566254 1055.379639,147.600174 1071.637329,148.050980 
	C1075.900024,148.169174 1080.158936,148.773163 1084.397583,149.323227 
	C1091.507324,150.245895 1098.335327,151.482346 1105.310669,147.438141 
	C1110.461670,144.451645 1116.512573,142.580673 1122.400513,141.405182 
	C1130.908203,139.706680 1139.608887,138.785675 1148.272339,138.136093 
	C1152.542725,137.815918 1156.914673,138.848251 1161.234863,139.268005 
	C1161.318237,138.346436 1161.399536,138.091812 1161.336304,138.048630 
	C1160.662842,137.588409 1159.976929,137.144165 1159.274902,136.728439 
	C1147.482666,129.745529 1134.187866,128.718964 1121.099243,128.214142 
	C1097.185791,127.291801 1073.233765,127.313896 1049.296387,127.109497 
	C1043.688843,127.061607 1038.075562,127.682129 1031.503174,127.995148 
z"/>
<path fill="#4652A3" opacity="1.000000" stroke="none" 
	d="
M242.500397,524.507080 
	C238.311813,566.070435 217.356522,594.964905 178.828568,609.917480 
	C121.483658,632.172852 56.844456,593.203186 48.901154,532.217163 
	C41.926727,478.669952 77.440216,430.817535 130.478699,422.296021 
	C185.596252,413.440460 237.645355,454.353729 242.121918,510.108795 
	C242.493958,514.742615 242.449432,519.409973 242.500397,524.507080 
z"/>
<path fill="#4853A3" opacity="1.000000" stroke="none" 
	d="
M68.287277,250.999969 
	C68.287308,215.005280 68.373085,179.510117 68.182281,144.016449 
	C68.157394,139.385986 69.452454,138.168442 74.039581,138.186127 
	C117.865715,138.355011 161.692764,138.284546 205.519547,138.296768 
	C207.144043,138.297211 208.768509,138.440765 210.625687,138.528625 
	C210.625687,185.963318 210.625687,233.028702 210.625687,280.470825 
	C208.772369,280.558929 207.152145,280.702789 205.531876,280.703247 
	C161.705093,280.715424 117.878052,280.646240 74.051888,280.812378 
	C69.487045,280.829712 67.953217,279.667969 68.182449,274.991302 
	C68.565430,267.177917 68.287071,259.332123 68.287277,250.999969 
z"/>
<path fill="#4753A3" opacity="1.000000" stroke="none" 
	d="
M35.169209,912.393799 
	C67.863495,855.385925 100.527176,798.766235 133.774384,741.135010 
	C167.104340,798.858215 200.020126,855.864075 233.421356,913.710693 
	C230.638474,913.710693 228.873825,913.710754 227.109177,913.710754 
	C164.989319,913.710754 102.869461,913.718872 40.749641,913.671753 
	C38.879066,913.670349 37.008938,913.091553 35.169209,912.393799 
z"/>
<path fill="#2A3891" opacity="1.000000" stroke="none" 
	d="
M1194.033203,157.987762 
	C1196.536011,159.334473 1199.038940,160.681168 1201.706299,162.262558 
	C1205.966431,167.228714 1210.515015,171.644363 1214.074219,176.749802 
	C1225.568115,193.237579 1230.997559,212.017319 1232.874023,231.758209 
	C1233.940918,242.983109 1234.538696,254.397263 1233.782959,265.620819 
	C1232.179077,289.441956 1226.637817,312.305756 1211.970093,331.859100 
	C1203.782715,342.773743 1193.455444,350.604065 1178.805664,349.977600 
	C1170.302124,349.613983 1163.119629,345.952789 1156.856323,340.401520 
	C1142.375610,327.566956 1135.361694,310.570404 1131.192139,292.346588 
	C1128.949951,282.546234 1128.331909,272.375427 1126.950439,262.376007 
	C1126.635742,260.098907 1126.194336,257.839294 1125.767822,255.314484 
	C1107.931396,255.314484 1090.345581,255.314484 1072.261963,255.314484 
	C1071.500977,262.747925 1071.023193,270.147156 1069.942627,277.457306 
	C1066.712891,299.304993 1060.596191,320.269440 1045.234497,336.814850 
	C1027.908936,355.475555 1004.945007,355.082642 987.333252,333.437073 
	C974.915039,318.174744 968.757446,300.016113 966.221985,280.873138 
	C964.463196,267.594330 963.567261,253.990051 964.292053,240.640121 
	C965.557251,217.338562 971.045166,194.876282 984.905884,175.484985 
	C991.860840,165.754852 1000.419189,157.582016 1013.243591,155.984360 
	C1027.785400,154.172760 1038.821777,160.706940 1047.484741,171.376633 
	C1061.093506,188.137634 1067.172241,208.069962 1069.982178,229.144028 
	C1070.529175,233.246933 1070.410034,237.456467 1071.194214,241.501297 
	C1071.512329,243.141953 1073.402954,245.736359 1074.612793,245.756073 
	C1091.756226,246.035263 1108.905518,245.946152 1126.175415,245.946152 
	C1127.135254,238.293869 1127.847778,230.922760 1129.016357,223.624695 
	C1132.164429,203.965485 1138.504395,185.527618 1151.632080,170.151733 
	C1162.065186,157.931763 1175.217651,152.878845 1191.670654,156.997070 
	C1192.096313,156.968430 1192.031128,156.999588 1192.155029,157.245239 
	C1192.863647,157.656525 1193.448364,157.822144 1194.033203,157.987762 
M1139.044800,290.366608 
	C1142.697510,305.040405 1148.163086,318.933044 1158.320801,330.372742 
	C1166.793091,339.914246 1179.511963,346.643066 1192.798706,337.955261 
	C1197.827026,334.667419 1202.577637,330.324341 1206.103027,325.478790 
	C1220.532593,305.645447 1224.835571,282.497925 1225.813599,258.692596 
	C1226.233154,248.484833 1225.205933,238.129349 1223.912842,227.958374 
	C1221.423828,208.381439 1215.448608,189.902908 1202.065796,174.894974 
	C1191.954102,163.555420 1178.875854,159.464310 1164.809692,169.461594 
	C1157.677979,174.530441 1152.972656,181.493713 1148.978149,189.024155 
	C1141.078491,203.916855 1137.328369,219.922318 1135.730469,236.645706 
	C1134.024780,254.497253 1135.070068,272.075531 1139.044800,290.366608 
M1054.188354,305.619568 
	C1059.370483,292.544678 1062.368530,278.849365 1062.762207,264.929230 
	C1063.140625,251.546280 1062.500854,238.001129 1060.780151,224.725388 
	C1058.535767,207.410721 1052.311523,191.297958 1041.541260,177.244980 
	C1032.644165,165.636200 1019.199158,160.974869 1008.287720,165.913132 
	C999.499817,169.890305 993.372192,176.777618 988.513367,184.936905 
	C976.971619,204.319153 973.160034,225.777496 972.130554,247.827057 
	C971.360291,264.324768 973.430054,280.659729 978.142029,296.503143 
	C982.247620,310.307648 988.003540,323.303864 998.858887,333.461090 
	C1009.881226,343.774445 1022.521912,344.496674 1034.343262,335.278076 
	C1044.015869,327.735229 1049.375488,317.331543 1054.188354,305.619568 
M1119.420654,251.000000 
	C1122.215820,251.000000 1125.010986,251.000000 1127.806152,251.000000 
	C1127.797485,250.776077 1127.788818,250.552139 1127.780151,250.328217 
	C1108.594238,250.328217 1089.408447,250.328217 1070.222656,250.328217 
	C1070.223022,250.552139 1070.223389,250.776077 1070.223755,251.000000 
	C1086.297241,251.000000 1102.370850,251.000000 1119.420654,251.000000 
z"/>
<path fill="#050505" opacity="1.000000" stroke="none" 
	d="
M1111.986328,367.025757 
	C1109.666138,370.736938 1108.579712,368.034027 1107.572998,366.365814 
	C1104.836304,361.830231 1102.255127,357.200775 1099.379639,352.204132 
	C1094.119385,357.337219 1092.963501,365.031677 1087.516113,369.355255 
	C1087.012695,369.096283 1086.509277,368.837341 1086.005859,368.578369 
	C1086.360962,367.142792 1086.433105,365.552124 1087.120361,364.298645 
	C1089.995361,359.055176 1092.975830,353.865112 1096.072388,348.749084 
	C1098.371338,344.950714 1099.677246,344.952972 1101.965210,348.846191 
	C1105.414307,354.715332 1108.653931,360.707520 1111.986328,367.025757 
z"/>
<path fill="#FFFFFF" opacity="1.000000" stroke="none" 
	d="
M978.157166,161.206879 
	C978.400208,160.606003 978.856262,160.308716 979.617065,160.071350 
	C979.404602,160.590988 978.887329,161.050720 978.157166,161.206879 
z"/>
<path fill="#FFFFFF" opacity="1.000000" stroke="none" 
	d="
M1307.110596,438.902405 
	C1306.680298,438.565460 1306.443604,438.059174 1306.206909,437.552887 
	C1306.569824,437.671295 1306.932617,437.789734 1307.466309,438.124634 
	C1307.526123,438.471771 1307.415161,438.602448 1307.110596,438.902405 
z"/>
<path fill="#D12328" opacity="1.000000" stroke="none" 
	d="
M1031.984009,127.995148 
	C1038.075562,127.682129 1043.688843,127.061607 1049.296387,127.109497 
	C1073.233765,127.313896 1097.185791,127.291801 1121.099243,128.214142 
	C1134.187866,128.718964 1147.482666,129.745529 1159.274902,136.728439 
	C1159.976929,137.144165 1160.662842,137.588409 1161.336304,138.048630 
	C1161.399536,138.091812 1161.318237,138.346436 1161.234863,139.268005 
	C1156.914673,138.848251 1152.542725,137.815918 1148.272339,138.136093 
	C1139.608887,138.785675 1130.908203,139.706680 1122.400513,141.405182 
	C1116.512573,142.580673 1110.461670,144.451645 1105.310669,147.438141 
	C1098.335327,151.482346 1091.507324,150.245895 1084.397583,149.323227 
	C1080.158936,148.773163 1075.900024,148.169174 1071.637329,148.050980 
	C1055.379639,147.600174 1039.087036,146.566254 1022.863098,147.192368 
	C1001.012573,148.035660 980.079834,153.741150 959.792664,161.944595 
	C952.375305,164.943954 944.684509,167.526596 935.597778,166.744049 
	C937.952881,161.256180 942.116516,158.067154 946.229797,155.043320 
	C960.426392,144.606857 976.890869,139.009918 993.616089,134.657013 
	C1005.985229,131.437805 1018.855957,130.145767 1031.984009,127.995148 
z"/>
<path fill="#7751A1" opacity="1.000000" stroke="none" 
	d="
M1193.887939,157.713593 
	C1193.448364,157.822144 1192.863647,157.656525 1192.138672,157.213104 
	C1192.579956,157.103348 1193.161377,157.271393 1193.887939,157.713593 
z"/>
<path fill="#FFFFFF" opacity="1.000000" stroke="none" 
	d="
M1127.570068,17.593964 
	C1128.109741,17.885103 1128.424805,18.324657 1128.739746,18.764221 
	C1128.200073,18.723789 1127.660522,18.683352 1127.024170,18.362558 
	C1127.067017,17.968929 1127.206299,17.855652 1127.570068,17.593964 
z"/>
<path fill="#7751A1" opacity="1.000000" stroke="none" 
	d="
M1138.998535,289.950317 
	C1135.070068,272.075531 1134.024780,254.497253 1135.730469,236.645706 
	C1137.328369,219.922318 1141.078491,203.916855 1148.978149,189.024155 
	C1152.972656,181.493713 1157.677979,174.530441 1164.809692,169.461594 
	C1178.875854,159.464310 1191.954102,163.555420 1202.065796,174.894974 
	C1215.448608,189.902908 1221.423828,208.381439 1223.912842,227.958374 
	C1225.205933,238.129349 1226.233154,248.484833 1225.813599,258.692596 
	C1224.835571,282.497925 1220.532593,305.645447 1206.103027,325.478790 
	C1202.577637,330.324341 1197.827026,334.667419 1192.798706,337.955261 
	C1179.511963,346.643066 1166.793091,339.914246 1158.320801,330.372742 
	C1148.163086,318.933044 1142.697510,305.040405 1138.998535,289.950317 
z"/>
<path fill="#7751A1" opacity="1.000000" stroke="none" 
	d="
M1054.042114,305.977570 
	C1049.375488,317.331543 1044.015869,327.735229 1034.343262,335.278076 
	C1022.521912,344.496674 1009.881226,343.774445 998.858887,333.461090 
	C988.003540,323.303864 982.247620,310.307648 978.142029,296.503143 
	C973.430054,280.659729 971.360291,264.324768 972.130554,247.827057 
	C973.160034,225.777496 976.971619,204.319153 988.513367,184.936905 
	C993.372192,176.777618 999.499817,169.890305 1008.287720,165.913132 
	C1019.199158,160.974869 1032.644165,165.636200 1041.541260,177.244980 
	C1052.311523,191.297958 1058.535767,207.410721 1060.780151,224.725388 
	C1062.500854,238.001129 1063.140625,251.546280 1062.762207,264.929230 
	C1062.368530,278.849365 1059.370483,292.544678 1054.042114,305.977570 
z"/>
<path fill="#494859" opacity="1.000000" stroke="none" 
	d="
M1118.932495,251.000000 
	C1102.370850,251.000000 1086.297241,251.000000 1070.223755,251.000000 
	C1070.223389,250.776077 1070.223022,250.552139 1070.222656,250.328217 
	C1089.408447,250.328217 1108.594238,250.328217 1127.780151,250.328217 
	C1127.788818,250.552139 1127.797485,250.776077 1127.806152,251.000000 
	C1125.010986,251.000000 1122.215820,251.000000 1118.932495,251.000000 
z"/>
</svg>